# xmcd
#
# Track frame offsets: 
#        150
#        19612
#        48640
#        62822
#        80485
#        92235
#        123482
#        147115
#        163636
#        187111
#        199880
#        228119
#        248400
#        276704
#
# Disc length: 3983 seconds
#
# Revision: 0
# Processed by: cddbd v1.5.1PL0 Copyright (c) Steve Scherf et al.
# Submitted via: ExactAudioCopy v0.95b3
#
DISCID=c70f8d0e
DTITLE=Giancarlo Schinina - The Acoustic Blues Album
DYEAR=2001
DGENRE=Blues
TTITLE0=Midnight Hour Blues
TTITLE1=Kind Hearted Woman
TTITLE2=Hey Bartender
TTITLE3=The End Of The Game
TTITLE4=Why Don't You Do Right
TTITLE5=Farewell To You
TTITLE6=Mighty Tight Woman
TTITLE7=Hey Joe
TTITLE8=If The Blues Was Money
TTITLE9=Trouble In Mind
TTITLE10=Loneliness
TTITLE11=Key To The Highway
TTITLE12=Hoochie Coochie Man
TTITLE13=Long Cold Rainy Winter 
EXTD=
EXTT0=
EXTT1=
EXTT2=
EXTT3=
EXTT4=
EXTT5=
EXTT6=
EXTT7=
EXTT8=
EXTT9=
EXTT10=
EXTT11=
EXTT12=
EXTT13=
PLAYORDER=
